# xmcd
#
# Track frame offsets:
#	180
#	14454
#	28947
#	50378
#	63608
#	77996
#	92027
#	105682
#	120691
#	134066
#	146586
#	160133
#	173470
#	185849
#	201212
#	213064
#	225567
#	237786
#	250224
#	263744
#	276923
#	291167
#	304824
#
# Disc length: 4247 seconds
#
# Revision: 0
# Processed by: cddbd v1.5.2PL0 Copyright (c) Steve Scherf et al.
# Submitted via: audiograbber 1.83.01
#
DISCID=53109517
DTITLE=Various Artist - Blues goes on CD  10
DYEAR=1900
DGENRE=Blues
TTITLE0=Tampa Red - Boogie Woogie Dance
TTITLE1=John Lee Hooker - Don´t Go Baby
TTITLE2=Big Bill Broonzy - Feelin´ Lowdown
TTITLE3=Big Boy Crudup - You Got To Reap
TTITLE4=Kokomo Arnold - The Twelves
TTITLE5=Sonny Terry - All Allone Blues
TTITLE6=Dr. Clayton - Pearl Harbour Blues
TTITLE7=Bessie Smith - Soft Pedal Blues 
TTITLE8=Robert Johnson - I Believe I´ll Dust My Broom
TTITLE9=John Lee Williamson - Good Gal Blues
TTITLE10=Blind Lemon Jefferson - Matchbox
TTITLE11=Bessie Smith - Baby Won´t You Jump With Me
TTITLE12=Sonny Terry - Beer Garden Blues
TTITLE13=Muddy Waters - Country Blues
TTITLE14=Lonnie Johnson - Jelly Roll Baker
TTITLE15=Mississippi John Hurt - Candy Man Blues
TTITLE16=John Lee Hooker - Burning Hell
TTITLE17=Leadbelly - Eagle Rock Rag 
TTITLE18=Brownie Mc Ghee - Death Of Blind Boy Fuller
TTITLE19=Bessie Smith - Blue Spirit Blues
TTITLE20=Memphis Slim - Grinder Man Blues
TTITLE21=Sonny Boy Williamson - Frigidair Blues
TTITLE22=John Lee Hooker - Highway Blues
EXTD=
EXTT0=
EXTT1=
EXTT2=
EXTT3=
EXTT4=
EXTT5=
EXTT6=
EXTT7=
EXTT8=
EXTT9=
EXTT10=
EXTT11=
EXTT12=
EXTT13=
EXTT14=
EXTT15=
EXTT16=
EXTT17=
EXTT18=
EXTT19=
EXTT20=
EXTT21=
EXTT22=
PLAYORDER=
